<?xml version="1.0" standalone="no"?>
<!DOCTYPE svg PUBLIC "-//W3C//DTD SVG 20010904//EN"
 "http://www.w3.org/TR/2001/REC-SVG-20010904/DTD/svg10.dtd">
<svg version="1.0" xmlns="http://www.w3.org/2000/svg"
 width="939.000000pt" height="800.000000pt" viewBox="0 0 939.000000 800.000000"
 preserveAspectRatio="xMidYMid meet">

<g transform="translate(0.000000,800.000000) scale(0.100000,-0.100000)"
fill="#000000" stroke="none">
<path d="M4330 7473 c-673 -29 -1355 -110 -1935 -231 l-130 -27 -3 -1835 c-2
-1306 0 -1858 8 -1915 62 -443 539 -1049 1250 -1589 74 -57 174 -129 223 -161
48 -32 85 -60 83 -62 -2 -2 -40 -1 -84 3 -67 6 -81 10 -85 25 -6 23 -43 25
-55 3 -16 -29 -43 -11 -61 41 -38 107 -118 199 -219 253 -68 37 -174 57 -223
44 l-34 -9 2 -66 1 -67 -24 19 c-80 63 -194 3 -194 -101 0 -42 -7 -45 -50 -23
-35 18 -43 40 -30 85 17 60 12 209 -10 296 -42 165 -119 282 -217 331 -32 16
-76 41 -98 56 -66 44 -122 58 -228 60 -82 2 -96 4 -91 17 89 230 0 568 -203
777 -83 86 -133 103 -133 47 0 -27 -15 -32 -24 -9 -8 23 -68 55 -101 55 -37 0
-70 -22 -95 -62 l-17 -29 -23 56 -22 55 44 48 c84 90 128 220 128 384 0 129
-13 183 -71 306 -43 89 -53 103 -72 100 -16 -2 -23 -12 -28 -40 -3 -20 -11
-43 -16 -50 -37 -45 -103 -270 -103 -353 0 -19 -4 -35 -8 -35 -10 0 -100 294
-100 325 0 11 -6 46 -13 77 -14 64 -7 103 24 122 26 16 53 -21 62 -83 9 -64
27 -90 52 -75 14 9 18 24 18 65 0 65 -41 143 -83 162 -15 6 -29 12 -31 13 -2
2 6 15 17 31 75 106 122 259 122 394 0 98 -9 129 -54 177 -36 39 -92 45 -121
12 -18 -20 -18 -19 -56 15 -43 39 -89 46 -126 20 -25 -17 -26 -16 -37 67 -4
36 -4 37 37 43 170 26 307 116 363 238 27 58 29 72 32 220 4 143 2 160 -14
179 -25 27 -75 20 -160 -22 -83 -40 -167 -119 -224 -208 -25 -39 -48 -71 -52
-71 -5 -1 -8 13 -8 29 0 17 5 30 11 30 8 0 8 4 -1 14 -15 19 12 173 35 195 22
22 49 3 53 -37 6 -57 72 -49 72 9 0 66 -68 127 -125 113 -26 -6 -26 -6 -19 32
9 50 11 54 34 54 11 0 43 9 71 19 151 58 329 276 329 405 0 59 -26 110 -65
128 -57 26 -171 -59 -264 -197 -33 -50 -33 -50 -26 -15 15 71 77 236 102 268
13 18 35 40 49 48 22 15 26 15 49 0 14 -10 31 -28 37 -42 18 -39 52 -29 56 17
4 47 -34 94 -89 110 -57 18 -49 36 28 57 73 21 160 89 245 191 96 116 122 167
115 228 -2 24 -7 47 -10 50 -11 10 -91 22 -155 23 -119 0 -208 -68 -284 -217
-39 -78 -43 -92 -44 -162 0 -66 -5 -85 -36 -146 -19 -38 -45 -96 -58 -127 -23
-55 -40 -74 -40 -44 0 7 -19 51 -42 97 -50 101 -153 209 -241 254 l-58 30 -25
-28 c-70 -81 13 -338 152 -471 25 -24 72 -58 103 -75 l58 -31 -15 -67 c-9 -38
-17 -70 -19 -72 -2 -3 -10 5 -19 17 -21 31 -66 52 -109 52 -27 0 -44 -8 -66
-29 -34 -34 -37 -60 -10 -92 16 -20 23 -22 38 -13 10 6 19 21 21 33 3 19 8 22
30 16 58 -14 93 -80 73 -137 -8 -21 -8 -35 -1 -43 7 -8 8 -30 3 -59 l-8 -47
-53 81 c-54 81 -144 167 -209 198 -18 9 -33 19 -33 23 0 11 -69 32 -85 25 -22
-8 -19 -123 5 -224 54 -224 170 -363 315 -375 l50 -4 3 -52 c2 -28 0 -51 -4
-51 -3 0 -19 11 -36 25 -29 25 -89 34 -114 17 -18 -11 -34 -48 -34 -76 0 -30
-2 -31 -40 -11 -63 32 -77 -1 -61 -145 13 -117 39 -202 87 -282 60 -98 133
-148 217 -148 l44 0 17 -82 c20 -103 20 -101 -3 -88 -33 17 -89 12 -111 -10
-25 -25 -27 -97 -4 -143 23 -45 54 -77 76 -77 31 0 32 29 5 86 -32 65 -33 74
-7 74 29 0 57 -32 71 -82 7 -24 18 -50 25 -58 10 -12 64 -201 64 -224 0 -2
-39 35 -88 82 -48 48 -118 107 -155 131 -96 62 -103 56 -100 -80 4 -186 62
-347 163 -449 76 -78 135 -105 229 -105 l74 0 13 -35 c19 -52 17 -57 -15 -52
-79 11 -122 -84 -78 -173 16 -34 60 -75 79 -75 34 0 40 34 13 84 -26 49 -32
76 -16 76 46 0 83 -58 157 -245 32 -82 60 -152 62 -155 1 -3 -35 31 -81 75
-96 94 -243 179 -300 173 -29 -3 -32 -6 -35 -41 -5 -53 40 -205 90 -307 99
-203 302 -324 441 -262 l46 20 37 -66 c20 -37 38 -69 39 -72 2 -3 -16 -3 -40
-2 -36 3 -45 0 -64 -23 -41 -53 -17 -177 50 -258 26 -32 37 -38 63 -35 27 3
31 7 34 34 3 26 -3 36 -27 53 -35 25 -67 106 -50 127 15 18 72 -11 115 -58 49
-51 95 -121 87 -129 -5 -3 -102 -29 -218 -58 -304 -73 -425 -85 -600 -56 -180
29 -327 90 -535 224 -69 44 -126 78 -128 76 -5 -5 167 -286 226 -369 129 -180
297 -329 483 -426 55 -28 97 -55 94 -60 -11 -18 -123 -80 -198 -110 -111 -44
-285 -88 -412 -103 l-110 -12 75 -47 c173 -108 345 -172 547 -204 127 -19 418
-15 521 9 34 8 62 11 62 7 0 -25 -35 -188 -55 -262 -18 -62 -22 -93 -16 -110
67 -171 700 -321 1766 -417 1010 -92 1687 -90 2705 9 917 90 1502 221 1630
367 34 38 37 67 15 139 -15 49 -55 244 -55 268 0 10 12 10 63 -2 34 -7 143
-16 242 -19 152 -4 199 -2 300 15 130 22 275 67 370 114 77 38 215 121 215
129 0 4 -33 10 -72 13 -150 15 -358 69 -485 126 -65 30 -153 86 -153 98 0 4
30 20 67 37 164 73 366 243 495 415 90 121 264 411 237 395 -8 -5 -63 -40
-124 -79 -391 -250 -668 -290 -1140 -164 -44 12 -73 23 -65 26 56 17 120 136
120 223 0 71 -23 99 -81 99 l-39 0 35 71 c20 39 39 69 43 67 87 -46 153 -48
245 -5 152 71 252 216 313 456 30 116 27 141 -19 141 -74 0 -254 -112 -342
-213 l-45 -51 70 174 c52 130 79 184 104 209 22 21 40 32 50 28 18 -7 13 -27
-16 -69 -23 -33 -24 -76 -1 -85 44 -17 113 74 113 149 0 56 -46 102 -95 96
-19 -2 -35 -3 -35 -3 0 1 7 22 15 47 l16 45 72 -1 c94 -1 165 32 237 111 98
107 147 244 157 434 6 115 5 117 -17 124 -31 10 -142 -67 -248 -173 -54 -53
-81 -75 -76 -60 4 13 17 62 29 109 11 48 26 93 32 100 6 8 17 33 24 57 13 43
63 97 80 86 15 -9 10 -34 -18 -84 -23 -41 -25 -51 -14 -64 20 -24 36 -20 69
18 57 65 66 158 19 191 -25 18 -80 20 -109 4 -17 -9 -20 -9 -15 3 3 8 11 49
18 91 l13 77 45 0 c122 0 248 140 290 325 23 99 30 218 15 243 -17 25 -29 27
-64 7 -34 -19 -35 -19 -36 15 -1 16 -9 41 -18 55 -24 36 -92 36 -135 -1 l-31
-26 0 56 0 56 44 0 c114 0 213 88 280 248 43 101 76 284 61 332 -10 32 -59 19
-148 -39 -89 -59 -156 -126 -210 -210 l-42 -65 -5 45 c-3 24 -3 51 1 59 4 8 5
36 2 61 -6 55 16 105 53 119 36 14 44 12 44 -10 0 -10 9 -24 21 -30 28 -15 59
12 59 52 0 91 -143 106 -204 23 -13 -18 -15 -17 -25 20 -6 22 -14 56 -16 75
-6 34 -4 36 47 60 80 38 168 132 217 231 76 156 89 270 35 320 l-25 24 -56
-30 c-89 -47 -183 -148 -237 -256 -25 -50 -46 -98 -46 -107 0 -26 -11 -7 -56
98 -23 56 -50 113 -60 127 -12 19 -17 49 -18 108 -1 70 -5 89 -34 147 -90 183
-198 251 -360 226 -65 -10 -75 -15 -88 -39 -19 -37 -17 -65 6 -117 23 -51 117
-168 189 -235 48 -45 158 -107 191 -107 8 0 21 -9 27 -19 11 -17 8 -20 -22
-25 -19 -4 -51 -22 -70 -41 -31 -29 -36 -39 -33 -72 2 -30 7 -39 25 -41 16 -2
26 5 38 28 9 17 26 36 39 41 64 30 121 -66 201 -341 3 -8 -3 -4 -13 10 -154
221 -268 282 -332 177 -31 -50 -26 -112 15 -193 78 -155 233 -291 353 -310 41
-6 52 -21 52 -71 0 -19 -4 -21 -35 -16 -31 5 -39 1 -75 -35 -46 -46 -53 -87
-19 -118 27 -24 52 -9 59 37 7 49 39 46 65 -6 14 -30 20 -65 22 -145 l3 -105
-26 45 c-89 151 -238 270 -357 286 -67 9 -72 -2 -72 -175 0 -167 15 -233 68
-302 63 -84 192 -151 330 -174 l38 -6 -7 -57 c-3 -31 -8 -59 -10 -61 -1 -1
-13 4 -26 13 -40 29 -109 12 -141 -35 l-15 -21 -21 21 c-14 14 -34 21 -57 21
-45 0 -97 -48 -113 -105 -35 -125 12 -343 103 -477 32 -48 34 -53 16 -56 -58
-10 -125 -152 -101 -214 20 -53 56 -30 67 42 8 55 30 100 48 100 7 0 21 -9 31
-20 14 -15 16 -30 12 -72 -12 -112 -28 -188 -70 -318 l-44 -135 -7 55 c-15
109 -47 224 -86 308 -22 46 -40 93 -40 103 0 38 -54 35 -65 -4 -4 -12 -23 -53
-42 -90 -107 -211 -73 -527 72 -672 l42 -42 -19 -49 c-22 -54 -38 -77 -38 -52
0 9 -13 30 -29 47 -43 46 -97 44 -151 -5 -35 -31 -40 -34 -40 -16 0 11 -7 25
-15 32 -23 19 -55 -2 -139 -91 -83 -88 -162 -230 -197 -354 -30 -102 -32 -294
-6 -364 22 -57 21 -62 -6 -56 -70 18 -258 -33 -296 -79 -8 -9 -24 -16 -38 -16
-98 0 -217 -143 -274 -330 -25 -81 -32 -236 -16 -335 l9 -50 -36 -18 c-20 -9
-38 -17 -40 -17 -2 0 -6 19 -9 42 -7 52 -33 88 -80 111 -47 24 -92 15 -129
-26 l-29 -30 11 27 c5 15 10 50 10 77 0 45 -3 51 -27 60 -39 15 -147 -2 -218
-35 -79 -36 -168 -124 -210 -209 -19 -38 -35 -78 -35 -88 0 -23 -32 -25 -50
-4 -17 21 -47 19 -53 -4 -4 -16 -18 -20 -90 -26 -47 -4 -91 -5 -97 -3 -6 2 24
26 66 53 43 27 135 90 204 139 730 522 1218 1100 1316 1556 11 54 14 381 14
1951 l0 1885 -62 12 c-875 167 -1570 235 -2358 230 -168 -1 -334 -3 -370 -5z
m823 -188 c513 -13 1296 -102 1740 -197 l47 -10 0 -1244 0 -1244 -1126 0
-1125 0 2 -1486 2 -1486 -199 2 c-110 0 -216 5 -236 9 -72 17 -362 198 -592
370 -634 476 -1095 1022 -1196 1416 -19 74 -20 111 -20 627 l0 548 1120 0
1120 0 0 1348 c0 742 3 1352 7 1355 3 4 61 5 127 2 67 -3 215 -7 329 -10z
m-3707 -167 c-46 -46 -95 -99 -110 -118 -14 -19 -23 -26 -20 -15 9 27 86 135
115 162 23 21 77 53 91 53 3 0 -31 -37 -76 -82z m6433 67 c38 -19 121 -111
149 -166 l24 -44 -27 30 c-15 17 -63 67 -108 113 -82 83 -88 93 -38 67z m41
-209 c0 -13 -53 38 -103 99 -36 44 -32 41 31 -20 40 -38 72 -74 72 -79z
m-6340 131 c0 -1 -32 -34 -72 -72 -40 -39 -64 -59 -53 -45 49 64 125 135 125
117z m6965 -388 c-18 -53 -106 -171 -154 -208 -32 -24 -31 -22 14 34 56 69
145 203 145 218 0 6 2 8 5 5 3 -2 -2 -25 -10 -49z m-7690 -30 c20 -33 64 -95
97 -137 l61 -77 -65 63 c-61 60 -119 142 -133 190 -10 36 0 26 40 -39z m2375
-89 c0 -29 -2 -30 -45 -30 -35 0 -52 -6 -70 -25 l-25 -24 0 -468 c0 -522 2
-542 67 -665 83 -158 248 -237 440 -210 188 26 331 155 372 333 6 26 11 238
11 527 l0 483 -25 24 c-18 19 -35 25 -70 25 -43 0 -45 1 -45 30 l0 30 210 0
210 0 0 -30 c0 -29 -2 -30 -44 -30 -28 0 -52 -7 -67 -19 l-24 -19 -6 -494 c-6
-541 -6 -545 -71 -677 -191 -393 -877 -386 -1072 10 -63 127 -66 159 -66 679
-1 538 4 510 -92 520 -49 5 -53 7 -56 33 l-3 27 235 0 236 0 0 -30z m-1908
-197 c-22 -27 -71 -77 -108 -113 -55 -54 -63 -59 -48 -31 34 61 164 191 191
191 3 0 -13 -21 -35 -47z m6762 -9 c38 -33 107 -118 128 -158 15 -29 -33 17
-135 128 -79 86 -76 100 7 30z m596 -383 c-26 -93 -51 -142 -101 -196 -35 -38
-122 -86 -133 -74 -3 2 25 38 61 79 65 75 183 245 183 263 0 6 2 8 5 5 3 -2
-4 -37 -15 -77z m-7897 -101 c22 -30 65 -81 95 -112 58 -61 54 -72 -16 -42
-75 31 -139 119 -176 243 -25 84 -19 90 20 25 19 -32 54 -84 77 -114z m7801
138 c-18 -32 -107 -158 -111 -158 -8 0 49 98 79 134 29 35 46 48 32 24z
m-7715 -108 c13 -24 19 -40 12 -36 -11 7 -80 105 -95 136 -16 32 60 -60 83
-100z m465 -192 c-42 -75 -212 -298 -250 -328 -30 -25 75 165 128 229 51 64
145 140 122 99z m6780 -61 c49 -50 88 -103 125 -170 29 -54 51 -100 49 -103
-9 -9 -138 153 -237 299 -17 26 -27 47 -20 47 6 0 44 -33 83 -73z m-6714 -90
c-23 -111 -102 -203 -223 -261 -116 -54 -119 -46 -20 48 94 88 202 222 232
285 l16 34 3 -26 c2 -15 -2 -51 -8 -80z m6612 14 c54 -83 157 -200 229 -260
56 -47 60 -53 34 -47 -73 16 -173 76 -229 136 -58 64 -79 112 -91 215 -6 56
-11 59 57 -44z m-7106 -113 c34 -37 55 -85 53 -125 0 -21 2 -51 6 -68 l7 -30
-22 35 c-12 19 -42 58 -66 87 -28 33 -40 53 -32 56 10 3 11 11 1 37 -21 57 6
61 53 8z m7604 -2 c-11 -21 -11 -28 0 -41 11 -13 6 -23 -33 -64 -25 -26 -53
-63 -63 -82 -9 -19 -19 -29 -21 -22 -2 7 1 21 7 33 6 11 8 35 4 55 -7 40 27
109 73 145 34 26 53 12 33 -24z m-7657 -176 c36 -42 80 -119 92 -160 6 -22 1
-19 -40 20 -42 41 -145 191 -145 213 0 14 56 -30 93 -73z m7717 12 c-47 -90
-160 -220 -160 -186 0 4 14 36 32 71 30 61 143 192 155 180 3 -3 -9 -32 -27
-65z m-7662 -259 c51 -41 54 -45 27 -39 -35 9 -66 35 -106 90 -36 48 -38 73
-3 28 14 -18 51 -53 82 -79z m7628 53 c-27 -46 -64 -78 -105 -91 -17 -5 -2 15
50 66 41 41 76 73 78 72 2 -1 -8 -22 -23 -47z m-7345 -122 c5 -27 -2 -73 -22
-153 -16 -63 -31 -116 -33 -118 -2 -2 -11 36 -19 84 -18 101 -11 228 13 243
24 15 54 -13 61 -56z m7063 21 c4 -15 4 -41 0 -59 -3 -19 -1 -36 4 -40 6 -4 7
-20 2 -43 -5 -21 -14 -65 -20 -98 l-13 -60 -27 110 c-35 137 -33 124 -31 163
1 42 34 76 60 62 10 -5 22 -21 25 -35z m-151 -141 c30 -71 67 -199 66 -229 0
-17 -90 224 -114 305 -7 24 -6 24 8 5 8 -11 26 -48 40 -81z m-6848 -79 c-57
-166 -72 -196 -60 -130 17 94 97 306 110 293 3 -3 -19 -76 -50 -163z m99 -2
c-11 -41 -34 -96 -40 -91 -5 5 36 118 43 118 2 0 0 -12 -3 -27z m6687 -55 c10
-27 16 -48 13 -48 -8 0 -44 90 -43 108 0 14 2 14 6 2 3 -8 14 -36 24 -62z
m-6942 -503 c52 -76 75 -115 67 -115 -5 0 -122 156 -189 250 -6 8 8 -3 31 -25
24 -22 65 -71 91 -110z m7285 133 c-14 -23 -177 -243 -187 -253 -21 -20 56
111 91 155 58 74 119 136 96 98z m-7357 -208 c32 -41 80 -99 108 -129 54 -57
46 -62 -36 -20 -66 33 -153 160 -174 254 l-7 30 26 -30 c14 -16 52 -64 83
-105z m7380 27 c-52 -112 -117 -175 -207 -202 -20 -6 -15 3 30 51 46 48 150
176 195 240 9 12 10 12 13 0 2 -8 -12 -48 -31 -89z m-6887 -295 c-26 -148 -91
-294 -76 -169 23 185 32 232 55 302 l26 80 3 -75 c2 -41 -2 -104 -8 -138z
m6349 126 c25 -82 54 -272 49 -325 l-3 -38 -24 60 c-33 85 -61 227 -61 315 0
86 9 84 39 -12z m-1998 35 c83 -31 117 -50 166 -96 82 -75 118 -185 101 -308
-11 -81 -49 -149 -120 -213 l-57 -52 60 -23 c160 -62 272 -247 255 -423 -17
-185 -127 -308 -323 -365 -47 -13 -120 -17 -395 -21 l-338 -4 0 31 c0 30 1 31
46 31 39 0 51 5 80 34 l34 34 0 639 c0 701 3 665 -60 698 -16 8 -45 15 -65 15
-31 0 -35 3 -35 26 l0 26 298 -4 c271 -4 302 -6 353 -25z m-4501 -733 c41 -42
83 -92 94 -111 17 -31 13 -29 -38 21 -32 30 -85 86 -119 124 -82 92 -37 68 63
-34z m6692 43 c-28 -32 -81 -87 -118 -123 -64 -63 -66 -63 -36 -20 44 63 89
113 147 160 27 22 51 40 53 40 2 0 -19 -26 -46 -57z m-6344 4 c6 -7 15 -31 20
-53 5 -25 15 -42 28 -48 19 -8 22 -24 33 -130 6 -67 22 -174 35 -238 12 -65
21 -118 20 -118 -6 0 -113 197 -142 260 -17 36 -43 92 -58 125 -18 38 -29 83
-32 122 -4 56 -2 64 22 88 27 27 47 25 74 -8z m6002 8 c36 -38 34 -113 -7
-196 -17 -35 -35 -79 -41 -97 -14 -41 -152 -295 -158 -289 -2 2 2 36 11 75 19
93 45 291 45 346 0 38 3 45 25 50 20 5 26 15 32 48 6 39 40 88 61 88 5 0 19
-11 32 -25z m-6308 -240 c88 -71 96 -86 34 -65 -54 18 -112 65 -161 131 -57
77 -57 93 -2 43 23 -22 81 -70 129 -109z m6687 96 c-56 -91 -162 -171 -229
-171 -6 0 10 17 37 39 26 21 86 71 133 110 47 39 86 71 87 71 2 0 -11 -22 -28
-49z m-6148 -274 c13 -68 19 -136 18 -225 l-1 -127 -19 70 c-27 103 -67 346
-73 455 l-6 95 31 -85 c16 -47 39 -129 50 -183z m5529 88 c-13 -113 -64 -378
-80 -415 -8 -19 -9 15 -6 130 6 167 9 191 59 350 27 90 32 100 35 70 2 -19 -2
-80 -8 -135z m-5435 -42 c15 -70 18 -176 6 -228 -5 -21 -9 2 -14 75 -6 91 -32
241 -51 305 -4 11 5 -3 19 -32 14 -28 32 -82 40 -120z m5320 101 c-8 -32 -20
-99 -26 -149 -6 -49 -14 -115 -18 -145 l-7 -55 -8 70 c-5 47 -2 96 7 150 15
78 55 201 63 192 3 -2 -2 -31 -11 -63z m312 -359 c9 -26 -26 -103 -58 -126
-30 -21 -38 -56 -17 -77 16 -16 10 -15 -67 4 -36 9 -65 20 -65 24 0 22 97 135
137 160 54 34 61 36 70 15z m-5374 -246 c22 -6 55 -25 74 -43 28 -25 36 -41
40 -79 8 -67 -10 -102 -60 -122 -37 -15 -71 -16 -284 -10 -274 9 -307 4 -372
-51 -70 -60 -75 -108 -26 -274 22 -78 28 -122 32 -241 l5 -146 -68 -17 c-213
-51 -433 -46 -652 14 -81 23 -212 71 -212 80 0 3 48 18 108 33 117 31 245 82
335 135 55 32 167 134 167 152 0 5 -24 16 -52 26 -146 47 -317 155 -440 277
-69 68 -191 217 -184 224 2 2 29 -8 62 -23 152 -67 373 -100 562 -84 126 11
239 33 463 91 258 66 411 84 502 58z m5043 -4 c48 -9 176 -38 285 -65 264 -67
367 -82 529 -82 159 0 296 25 426 76 46 18 84 31 84 27 0 -18 -110 -148 -191
-226 -134 -130 -255 -207 -416 -265 -35 -12 -63 -25 -63 -28 0 -3 16 -24 35
-48 76 -92 260 -187 473 -243 l107 -29 -59 -26 c-84 -38 -209 -73 -329 -90
-169 -26 -316 -19 -481 20 l-69 17 6 146 c5 148 32 291 63 336 8 11 14 40 14
66 0 61 -31 107 -95 139 -50 25 -51 25 -335 25 -298 0 -328 4 -349 44 -27 50
-3 154 44 185 58 38 177 46 321 21z m-498 -248 c-7 -63 -138 -330 -155 -314
-11 11 139 357 155 357 3 0 2 -19 0 -43z m-4277 -58 c34 -68 99 -234 99 -252
-1 -19 -69 92 -106 171 -29 62 -45 142 -29 142 3 0 19 -28 36 -61z m-544 -35
c109 -16 337 -16 376 1 16 7 17 -4 17 -154 0 -89 -4 -161 -9 -161 -54 0 -434
97 -539 137 -89 35 -112 54 -112 92 0 42 29 71 85 86 65 18 57 18 182 -1z
m5545 -11 c35 -17 60 -55 56 -85 -4 -33 -55 -62 -176 -102 -162 -53 -475 -126
-487 -114 -3 3 -2 75 1 160 l7 156 31 -9 c47 -14 270 -11 366 4 92 15 159 12
202 -10z m-744 -194 c-51 -44 -57 -38 -20 21 36 58 37 59 40 29 2 -21 -3 -35
-20 -50z m-4253 -10 l27 -42 -31 22 c-17 12 -31 31 -31 42 0 27 4 24 35 -22z
m800 -121 c31 -33 59 -75 68 -102 9 -25 14 -46 13 -46 -2 0 -19 24 -39 54 -20
30 -64 85 -99 122 -53 57 -58 65 -29 48 18 -10 57 -45 86 -76z m2673 31 c-33
-34 -78 -89 -99 -122 -41 -64 -51 -59 -20 9 22 49 73 108 125 146 61 44 59 33
-6 -33z m131 -18 c-32 -58 -132 -154 -155 -149 -15 3 0 23 72 96 50 51 94 92
98 92 4 0 -3 -18 -15 -39z m-2910 -52 c45 -45 81 -85 81 -90 0 -5 -8 -9 -18
-9 -26 0 -162 146 -162 174 0 18 27 -2 99 -75z m-1314 36 c527 -159 2059 -313
2910 -291 1022 26 2232 169 2634 311 24 8 47 15 52 15 5 0 9 -71 9 -157 0
-219 25 -407 74 -566 14 -46 13 -49 -9 -76 -126 -149 -1166 -315 -2400 -381
-1210 -66 -3256 160 -3462 382 l-22 23 25 95 c41 158 55 265 61 478 3 111 8
202 10 202 2 0 55 -16 118 -35z m1059 -10 c45 -31 52 -31 67 -3 12 21 12 21
27 -8 8 -16 26 -44 40 -61 29 -39 34 -38 -108 -22 -80 10 -103 16 -111 30 -12
24 -2 66 20 79 23 13 24 13 65 -15z m3281 -21 c7 -3 32 7 54 21 22 15 47 25
56 21 22 -8 39 -50 31 -79 -6 -27 -22 -31 -164 -43 l-82 -7 42 64 c31 46 44
59 46 46 2 -10 10 -21 17 -23z m514 -8 c-2 -2 -22 -6 -44 -10 -29 -5 -36 -4
-25 3 13 10 79 16 69 7z"/>
<path d="M5793 6739 c-43 -63 -68 -114 -91 -189 -42 -139 -38 -233 18 -416 30
-95 53 -215 63 -317 4 -40 2 -48 -12 -45 -12 2 -18 20 -23 68 -16 145 -80 272
-172 341 -61 46 -119 63 -195 56 -137 -12 -225 -105 -225 -237 0 -134 84 -220
214 -220 104 0 160 46 160 132 0 66 -30 98 -94 98 -36 0 -48 -5 -64 -25 -23
-29 -36 -19 -26 18 9 39 57 78 100 83 103 13 212 -110 238 -272 7 -40 6 -41
-24 -47 -52 -11 -52 -64 1 -77 20 -6 24 -12 22 -43 -5 -76 -76 -167 -131 -167
-20 0 -23 3 -14 12 18 18 15 63 -5 87 -10 12 -35 24 -55 28 -32 5 -41 1 -68
-25 -25 -26 -30 -38 -30 -79 0 -80 47 -123 135 -123 110 0 199 94 229 244 8
40 18 61 27 61 30 0 7 -153 -41 -272 -49 -122 -37 -184 52 -271 l45 -43 45 49
c89 95 96 136 44 276 -38 101 -64 242 -48 258 17 17 29 1 36 -49 8 -59 48
-148 84 -186 78 -83 214 -90 266 -15 9 13 16 43 16 71 0 40 -5 53 -29 78 -38
37 -82 39 -116 4 -27 -26 -33 -73 -13 -93 9 -9 6 -12 -14 -12 -54 0 -120 83
-134 169 -6 39 -5 41 18 41 54 0 64 58 13 74 -17 6 -32 11 -33 12 -2 1 2 29 8
61 42 200 207 318 302 215 28 -30 43 -66 33 -82 -4 -6 -15 0 -27 15 -16 20
-28 25 -64 25 -64 0 -94 -32 -94 -98 0 -86 56 -132 160 -132 131 0 213 85 214
221 0 147 -116 248 -273 237 -169 -12 -293 -168 -319 -400 -5 -48 -11 -64 -24
-66 -16 -3 -17 3 -12 45 14 122 29 198 66 323 64 215 57 341 -27 515 -19 39
-45 83 -58 99 l-24 29 -30 -44z"/>
<path d="M3680 4191 c-14 -5 -40 -15 -57 -24 -23 -12 -58 -17 -119 -17 l-87 0
21 -22 c30 -33 42 -71 42 -137 0 -68 -13 -114 -47 -158 l-24 -33 28 0 c16 0
35 6 42 13 24 22 5 -58 -24 -100 l-25 -38 22 -3 c14 -3 28 5 40 20 18 23 18
22 2 -17 -9 -22 -23 -49 -32 -59 -16 -18 -16 -19 21 -13 44 7 46 -1 10 -43
l-26 -31 37 7 37 6 -7 -38 c-12 -66 -22 -83 -70 -117 -26 -17 -67 -47 -91 -64
-69 -53 -160 -43 -182 18 -22 62 7 139 83 229 102 119 116 282 31 360 -35 32
-101 34 -142 4 -45 -33 -62 -80 -72 -199 -8 -107 -9 -109 -42 -136 -19 -16
-50 -42 -70 -59 -49 -41 -88 -60 -124 -60 -29 -1 -29 -1 -11 -15 11 -8 34 -15
50 -15 27 0 35 -7 59 -50 33 -61 34 -77 2 -124 -13 -20 -22 -36 -19 -36 16 0
65 33 74 49 13 25 13 102 0 136 -8 20 -7 26 2 23 6 -2 17 -20 24 -39 l12 -34
1 53 c1 29 -4 63 -10 74 -10 18 -7 25 24 52 50 44 58 66 67 185 4 58 11 114
15 124 11 27 62 49 95 42 50 -11 65 -39 65 -119 -1 -79 -12 -107 -77 -194 -67
-90 -88 -141 -88 -216 0 -58 3 -69 29 -98 25 -29 35 -32 95 -36 l66 -4 0 -32
c0 -20 13 -51 31 -80 17 -26 28 -50 24 -54 -4 -4 -34 -7 -68 -8 -86 -1 -86 -1
-99 -30 -10 -22 -17 -25 -45 -21 -30 5 -32 4 -22 -14 5 -11 21 -25 34 -31 24
-11 25 -16 10 -90 -2 -14 3 -13 30 7 l33 25 -24 -46 c-13 -26 -24 -61 -24 -78
l1 -31 22 28 c13 15 25 27 27 27 3 0 4 -20 2 -45 -2 -25 -1 -57 2 -71 7 -24 8
-25 25 -10 26 23 40 20 47 -11 24 -106 43 -153 63 -153 4 0 7 19 7 42 -1 39 1
43 24 44 14 1 39 5 56 9 26 6 34 3 53 -20 l21 -28 0 35 c0 19 -6 40 -12 47
-11 11 -9 13 7 8 11 -2 28 -8 38 -12 27 -11 22 30 -10 81 -28 43 -29 43 -84
44 -71 0 -91 19 -97 95 -2 30 -2 55 1 55 2 0 21 -7 40 -15 20 -8 53 -15 74
-14 33 0 36 2 19 12 -50 32 -57 44 -12 22 49 -25 86 -32 86 -17 0 4 -9 13 -19
19 -19 12 -19 14 15 64 38 56 39 64 23 120 -10 32 -9 46 5 82 9 25 25 52 35
61 12 11 9 -1 -12 -43 -36 -72 -31 -103 14 -94 40 8 38 -9 -11 -85 -49 -74
-50 -101 -9 -131 26 -19 29 -27 24 -54 l-6 -32 20 30 c14 19 20 39 16 55 -2
14 5 5 16 -20 11 -25 18 -56 16 -70 l-5 -25 20 25 c15 18 18 34 15 60 l-6 35
19 -35 c11 -19 26 -48 33 -64 l15 -29 7 40 6 41 86 -4 c70 -4 89 -1 104 12 17
15 20 15 44 0 34 -23 31 -13 -10 33 -38 41 -34 58 10 47 34 -9 22 20 -17 40
-35 18 -27 38 13 32 32 -5 38 6 12 20 -30 16 -122 23 -142 12 -11 -5 -22 -23
-26 -40 -6 -28 -9 -30 -56 -30 -50 0 -89 13 -89 29 0 5 27 19 59 31 59 22 88
45 111 88 11 22 10 23 -9 13 -11 -6 -23 -16 -26 -21 -3 -6 -13 -10 -21 -10
-13 0 -13 3 0 22 9 12 16 33 16 47 0 33 -59 86 -120 106 l-51 17 31 34 c21 25
30 45 30 71 0 30 2 34 15 23 9 -7 15 -30 15 -54 1 -38 2 -40 15 -22 8 11 15
34 16 50 l1 31 8 -28 c5 -16 14 -34 20 -42 6 -8 15 -26 19 -42 l8 -28 8 29 c7
27 5 38 -20 100 -5 12 -5 17 1 13 6 -3 23 -41 40 -83 28 -74 29 -76 34 -43 l5
33 58 -52 c51 -47 62 -52 88 -47 25 6 31 3 36 -14 3 -11 9 -18 14 -15 12 7 11
61 -1 84 -9 16 -6 21 14 26 13 3 33 1 44 -5 19 -10 20 -9 11 21 -5 17 -21 44
-36 60 l-27 28 29 0 c27 0 28 1 11 19 -10 11 -32 23 -48 26 -26 6 -36 2 -69
-31 -43 -42 -49 -41 -100 29 -28 38 -28 38 -11 83 13 36 21 44 36 40 17 -4 18
0 14 57 -3 45 -2 55 5 36 5 -13 14 -35 21 -48 11 -23 11 -23 18 10 4 19 5 45
3 59 -4 17 3 35 19 55 22 27 27 29 46 17 12 -8 33 -11 49 -7 22 5 30 1 39 -17
10 -21 11 -19 11 20 1 37 -3 45 -30 61 l-30 19 25 20 c17 13 34 18 49 14 21
-5 21 -5 6 19 -9 13 -30 28 -47 34 -37 11 -40 19 -12 38 28 19 15 27 -47 27
-70 0 -89 -18 -98 -99 -7 -60 -9 -63 -61 -103 l-54 -40 -32 27 c-42 36 -88 55
-135 56 -42 1 -33 4 41 14 l48 7 -23 25 c-16 18 -20 27 -12 30 7 3 23 13 35
23 18 15 20 20 10 33 -10 12 -19 13 -47 4 -40 -12 -54 -5 -35 18 17 21 47 19
82 -7 55 -39 101 -2 84 67 -7 28 -38 40 -63 26 -16 -8 -15 -10 9 -16 33 -8 46
-41 25 -62 -13 -13 -19 -12 -55 6 -23 12 -48 21 -57 21 -19 0 -20 16 0 24 8 3
15 12 15 21 0 8 5 24 12 34 18 30 -5 51 -57 51 -29 0 -45 5 -49 15 -6 16 -26
18 -66 6z m40 -45 c0 -9 -7 -12 -20 -9 -11 3 -20 9 -20 14 0 5 9 9 20 9 11 0
20 -6 20 -14z m67 -82 c8 -22 -9 -69 -26 -69 -22 0 -40 37 -30 63 10 26 47 30
56 6z m116 -297 c25 -10 16 -12 -60 -9 l-88 2 37 -20 c39 -21 75 -63 59 -68
-5 -2 -33 4 -62 12 -29 9 -54 14 -57 12 -2 -3 4 -25 13 -51 10 -25 16 -47 14
-49 -2 -3 -17 7 -32 20 -15 13 -24 24 -20 24 5 0 14 -5 21 -12 18 -18 16 6 -4
43 -8 17 -13 34 -9 37 3 4 33 -1 66 -9 l61 -16 -21 21 c-12 12 -35 26 -51 31
-16 6 -31 14 -32 20 -6 22 120 31 165 12z m-220 -137 c-3 -11 -7 -20 -9 -20
-2 0 -4 9 -4 20 0 11 4 20 9 20 5 0 7 -9 4 -20z m-31 -70 c9 25 17 38 17 30 1
-16 -47 -125 -53 -119 -1 2 0 36 3 74 l5 70 6 -50 5 -50 17 45z"/>
<path d="M5560 3700 l0 -292 93 4 c102 5 155 25 215 82 59 55 76 99 77 201 0
107 -14 153 -64 208 -52 58 -105 78 -222 84 l-99 6 0 -293z"/>
<path d="M5560 3010 l0 -342 143 4 c176 6 221 21 294 93 61 62 83 122 83 230
0 99 -21 163 -74 222 -74 82 -165 116 -343 129 l-103 7 0 -343z"/>
<path d="M2132 1465 c-36 -16 -55 -54 -46 -91 4 -14 28 -49 55 -78 55 -60 60
-81 24 -98 -35 -16 -79 13 -72 48 3 18 0 24 -13 24 -20 0 -30 -19 -30 -60 0
-22 7 -31 34 -44 54 -26 103 -21 137 13 46 46 40 79 -27 152 -63 69 -67 94
-14 94 29 0 36 -4 38 -22 2 -14 10 -23 22 -23 14 0 19 9 22 39 3 36 1 40 -23
45 -15 3 -37 7 -50 10 -13 3 -39 -1 -57 -9z"/>
<path d="M7151 1462 c-6 -11 -11 -27 -11 -36 0 -22 -69 -238 -81 -252 -10 -13
-57 -16 -64 -4 -3 4 -12 56 -21 116 -14 99 -15 109 0 120 9 6 16 16 16 23 0
14 -130 6 -220 -15 -36 -8 -96 -16 -135 -18 -38 -2 -77 -6 -85 -9 -8 -4 -35
-8 -59 -9 -47 -3 -68 -25 -32 -35 14 -3 22 -16 25 -37 13 -82 17 -126 11 -126
-3 0 -59 41 -125 90 -114 86 -160 109 -146 74 7 -19 22 -119 31 -206 6 -58 4
-68 -9 -68 -9 0 -16 -8 -16 -18 0 -15 7 -17 38 -15 63 6 82 13 82 28 0 8 -9
15 -19 15 -16 0 -21 9 -26 48 -3 26 -8 62 -11 80 -3 17 -1 32 3 32 4 0 61 -41
126 -90 117 -89 154 -108 143 -72 -9 27 -25 152 -28 212 -3 45 0 55 15 58 12
2 17 -3 17 -18 0 -15 5 -20 18 -18 9 2 17 10 17 18 0 18 75 33 80 16 5 -18 25
-179 25 -203 0 -14 -6 -23 -16 -23 -9 0 -14 -7 -12 -17 3 -18 32 -20 101 -7
31 6 36 29 8 37 -15 4 -21 23 -33 113 -8 60 -13 112 -11 117 6 11 71 9 78 -3
11 -18 35 -11 35 10 0 13 7 20 20 20 11 0 20 -5 20 -10 0 -6 7 -56 15 -112 14
-92 14 -104 0 -114 -8 -6 -15 -18 -15 -25 0 -13 17 -12 122 1 102 12 123 18
126 33 2 9 -2 17 -8 17 -8 0 -10 9 -5 28 9 36 13 39 63 45 38 5 45 2 59 -20
12 -19 13 -27 4 -32 -6 -4 -9 -14 -6 -23 9 -23 125 -2 125 22 0 11 -7 17 -17
16 -12 -1 -44 38 -98 122 -99 149 -100 150 -114 124z m59 -152 c0 -10 -39 -24
-47 -17 -3 3 -2 20 2 38 l7 33 19 -23 c11 -13 19 -27 19 -31z"/>
<path d="M2416 1393 c-36 -75 -146 -223 -166 -223 -37 0 -22 -29 18 -35 20 -3
48 -8 61 -11 22 -5 23 -2 18 24 -4 18 0 37 8 49 14 20 25 21 91 8 28 -6 39
-54 16 -71 -10 -7 -13 -16 -9 -20 4 -5 64 -16 132 -24 109 -15 125 -15 125 -2
0 8 -7 20 -15 26 -21 16 -9 100 14 90 65 -29 135 1 147 61 9 51 -8 83 -59 105
-55 24 -177 38 -177 20 0 -7 7 -18 16 -24 14 -11 14 -22 0 -124 -9 -62 -16
-115 -16 -117 0 -8 -44 -5 -58 4 -8 4 -33 73 -56 152 -46 158 -60 175 -90 112z
m366 -74 c31 -36 -11 -95 -60 -82 -23 6 -27 25 -16 82 6 27 10 30 33 25 14 -3
33 -15 43 -25z m-338 -31 c7 -38 4 -42 -28 -34 -25 6 -25 6 -8 36 22 38 28 38
36 -2z"/>
<path d="M2885 1360 c-9 -14 3 -30 22 -30 12 0 14 -8 9 -42 -3 -24 -8 -68 -11
-98 -10 -89 -14 -100 -35 -100 -22 0 -28 -28 -7 -34 6 -3 38 -7 70 -10 45 -5
57 -3 57 8 0 7 -9 20 -19 27 -20 15 -21 5 5 197 4 33 9 42 25 42 21 0 27 28 7
35 -36 11 -117 14 -123 5z"/>
<path d="M3040 1334 c0 -7 6 -17 14 -21 12 -7 13 -26 4 -125 -10 -104 -13
-118 -29 -118 -12 0 -19 -7 -19 -19 0 -16 11 -19 83 -24 137 -11 134 -12 157
33 24 48 25 50 2 50 -9 0 -23 -9 -30 -20 -9 -16 -23 -20 -62 -20 l-50 0 0 45
c0 45 0 45 35 45 22 0 38 -6 41 -15 4 -8 12 -15 19 -15 16 0 26 82 11 92 -17
12 -26 9 -26 -7 0 -17 -36 -20 -59 -6 -10 6 -12 20 -8 46 3 21 8 39 10 42 10
10 87 -11 87 -23 0 -8 7 -14 15 -14 12 0 34 65 24 74 -2 2 -52 6 -111 9 -86 4
-108 2 -108 -9z"/>
<path d="M6095 1339 c-22 -5 -66 -11 -97 -14 -38 -4 -58 -11 -58 -20 0 -7 8
-15 18 -17 16 -4 20 -19 25 -89 11 -132 9 -159 -8 -159 -8 0 -15 -7 -15 -16 0
-14 12 -15 98 -9 127 9 129 9 137 51 3 20 9 42 12 50 9 25 -20 15 -46 -16 -20
-23 -35 -31 -66 -33 -40 -2 -40 -2 -43 37 -4 42 8 56 46 56 13 0 22 -6 22 -15
0 -8 7 -15 15 -15 11 0 15 12 15 50 0 43 -3 50 -20 50 -11 0 -20 -7 -20 -15 0
-10 -10 -15 -34 -15 -32 0 -34 2 -38 41 -2 22 -2 42 1 45 2 2 24 4 48 4 33 0
43 -4 43 -16 0 -35 25 -4 28 34 3 46 4 45 -63 31z"/>
<path d="M3325 1203 c-7 -126 -17 -169 -36 -158 -5 4 -9 -3 -9 -13 0 -17 8
-21 55 -24 39 -2 56 1 60 10 7 20 6 22 -9 22 -22 0 -24 8 -17 95 l6 79 105
-117 c58 -64 110 -117 115 -117 7 0 15 53 21 133 6 73 14 138 18 145 9 16 34
4 32 -16 0 -9 7 -18 17 -20 10 -2 17 3 17 12 0 12 10 16 41 16 l42 0 -6 -82
c-4 -46 -7 -98 -7 -116 0 -25 -5 -35 -20 -39 -38 -10 -23 -33 23 -33 23 0 52
-3 65 -6 18 -5 22 -2 22 15 0 13 -6 21 -17 21 -14 0 -15 12 -9 117 3 64 8 118
10 120 10 10 76 -11 76 -23 0 -22 27 -17 33 6 5 21 31 27 42 10 4 -6 3 -61 -1
-122 -6 -96 -9 -111 -25 -115 -11 -3 -19 -11 -19 -18 0 -8 26 -14 77 -19 125
-10 173 -8 173 8 0 8 -5 16 -11 18 -7 2 -7 12 2 31 11 24 17 27 65 27 49 0 53
-2 63 -30 6 -18 6 -30 0 -30 -5 0 -9 -7 -9 -15 0 -9 9 -15 23 -15 12 0 39 -3
60 -6 32 -6 37 -4 37 14 0 11 -8 22 -17 25 -12 3 -39 54 -78 146 -33 77 -65
141 -72 141 -6 0 -15 -10 -18 -22 -12 -41 -116 -243 -131 -254 -8 -6 -26 -9
-40 -6 l-27 5 7 115 c6 109 15 140 38 126 4 -3 8 4 8 15 0 19 -6 21 -70 21
-38 0 -70 3 -70 8 0 4 -51 7 -112 8 -62 0 -155 3 -205 5 -84 4 -93 3 -93 -13
0 -10 7 -18 16 -18 14 0 16 -8 10 -46 -3 -26 -6 -62 -6 -81 0 -19 -4 -33 -9
-31 -5 2 -53 51 -106 111 -54 59 -103 107 -110 107 -9 0 -15 -35 -20 -127z
m952 -73 c11 -29 10 -30 -18 -30 -33 0 -33 0 -17 35 15 32 21 32 35 -5z"/>
<path d="M5823 1313 c-29 -3 -43 -9 -43 -19 0 -8 7 -14 15 -14 22 0 31 -33 39
-143 6 -94 5 -99 -14 -104 -11 -3 -20 -12 -20 -20 0 -11 14 -13 67 -11 55 2
68 6 71 21 2 11 -3 17 -16 17 -18 0 -21 9 -26 78 -4 42 -9 94 -11 114 -4 30
-1 39 15 48 11 6 20 17 20 25 0 15 -7 16 -97 8z"/>
<path d="M5557 1296 c-48 -18 -76 -42 -93 -83 -33 -77 -1 -179 67 -213 65 -34
168 -21 221 27 24 21 26 113 3 113 -9 0 -15 -9 -15 -24 0 -55 -75 -102 -141
-89 -90 18 -114 167 -35 218 50 33 141 12 153 -36 3 -10 14 -19 24 -19 15 0
17 5 12 33 -9 51 -21 65 -61 77 -49 13 -89 12 -135 -4z"/>
<path d="M5050 1277 c-19 -5 -82 -7 -140 -4 l-105 4 3 -38 c4 -39 24 -53 36
-24 3 9 18 15 40 15 l35 0 3 -107 c3 -121 2 -133 -18 -133 -8 0 -14 -7 -14
-15 0 -12 14 -15 65 -15 49 0 65 3 65 14 0 7 -9 16 -20 19 -19 5 -20 14 -20
121 l0 116 40 0 c29 0 40 -4 40 -15 0 -8 9 -15 20 -15 15 0 20 6 19 28 -1 51
-10 60 -49 49z"/>
<path d="M5259 1261 c-52 -52 -33 -101 61 -161 43 -27 51 -37 48 -59 -3 -22
-8 -26 -41 -29 -35 -3 -39 0 -50 27 -18 49 -47 35 -47 -24 0 -31 18 -44 72
-51 77 -11 141 45 124 108 -8 32 -13 37 -78 86 -59 43 -68 58 -46 80 18 18 46
14 60 -8 21 -33 38 -24 38 20 l0 40 -56 0 c-48 0 -59 -4 -85 -29z"/>
<path d="M4648 1273 c-101 -4 -121 -14 -78 -41 18 -11 20 -23 20 -123 0 -102
-2 -111 -20 -116 -11 -3 -20 -14 -20 -24 0 -18 7 -19 111 -17 l111 3 18 48
c16 41 16 47 3 47 -9 0 -26 -11 -39 -25 -17 -19 -33 -25 -64 -25 -38 0 -40 2
-40 29 0 16 -3 36 -6 45 -5 13 2 16 35 16 23 0 41 -4 41 -10 0 -5 7 -10 15
-10 11 0 15 12 15 45 0 32 -4 45 -14 45 -8 0 -17 -7 -20 -16 -4 -10 -16 -14
-38 -12 -32 3 -33 5 -33 48 l0 45 43 3 c37 3 44 0 49 -17 3 -12 11 -17 19 -14
18 7 20 84 2 81 -7 -1 -57 -4 -110 -5z"/>
</g>
</svg>
